<svg xmlns="http://www.w3.org/2000/svg" viewBox="0 0 371 157">
  <path fill="#ffb380" d="M237 0l-3 1-38 44-3 3-1-1c-5-6-12-6-16-9-2-2-5-2-6-2h-2l-16 21-2-1c-3-3-8-4-12-7l-2 2-6 9c-5 10-11 18-17 26l-1-3c-5-11-32-31-35-33l-2-1-2 1h-1c-1 0-6 5-13 16-6 9-18 21-35 33l-12 11-11 22-1 2 12-10c4-4 5-2 9-6l5-2c4-8 10-15 16-21l9-5-2 9c-2 12-2-1-3-5-1-1-7 5-14 14-1 2-2 7-4 9l-15 7c-7 6-5 9-6 9l2 2c1 1 27-15 31-17-17 10-26 18-23 18l15-3c4-1-1 6 7 3 6-2 8-20 10-23l2-13c1-8 2-10 3-9s-1 9-3 17l-2 16-3 7v9c1 0 9-13 9-8l-1 15c2 0 2-1 3-8 1-10 3-17 8-25 4-5 4-6 3-6l-5 5-4 4 1-7c0-10 3-26 0-29v-1c4-6 6-14 6-14-2-2-10 15-21 23l-7 3c9-7 19-18 26-29a123 123 0 018-12l2 2v1c1 3 1 3 1 1v11c0 9 0 12 1 8V59l-1-2 2 3 5 20c1 7 3 13 4 13l-1-10-2-11 3 5a217 217 0 018 21c9 25 17 54 15 54-1 0-6-6-11-14-11-17-23-28-21-24-1 14-16 27-14 29 2 3 18-2 22 6 5 8 22 6 23 7 5 4 5-7-1-27l-8-25 6 1c1 0-6-19-4-20l12 18 6 9 14 26-3-7-7-14-3-7 3 2 20 24c1-2-21-33-29-48l3-3 9-10c2 1 25 17 29 23 2 3 3 6 5 7 7 3 7 18 14 19 1 0 9-15 10-14l1 1-1-4c-1-1-10 10-11 10-6-1-4-13-10-15l-7-6-13-23h3c0-2-3-2-3-4-3-4-2-9-3-13l11 12c5 4 8 5 9 4l5 8c1 1-2 4 1 4 1 0 3 1 4-1-2-5-6-9-9-14l-6-8c-1-2 0-4 1-5l10-13 4-2 2 6c2 6 3 7 12 12l5 5a729 729 0 000 9c-5 13-5 13-3 16 3 3 5 4 3 0-2-3-2-4 0-10l2 5 8 9 2 5c5 11 13 24 16 27 1 2 3 4 5 4 2 1 2 1-1-5-3-9-8-18-13-25l10 7 4 3c2 0 3 0 3-2l3-3 2-6 2-3 6-9 1-1 28-46 1-3 2-3 7-9-10 19-17 38c-1 4 7-3 11-11-3 8-8 18-8 21 0 7 11 0 11 7l1-1 1-5 1-8c0-3 2-5 3-7l3-12v16l-2 6c-1 1 0 3 1 3l2-6c1 4 3 8 6 10 2 1 3 2 5 1 1-1 1-4-1-4l-1-4 1-9 3-9c1-1 3-2 4-1l4 2c1 0 3-2 3-4 1-4 0-9-3-13l-7-13-3-12 1-1c2 6 3 16 7 17l6 3c1 2-1 3-2 4 0 2 2 3 3 2 2-1 4-4 2-6l-8-9c-2-1 2-16 0-16s-6-9-5-10l8 4-5-2 3 8c2 5 1 12 1 14 3 9 12 13 19 20 2 3 4 5 4 9l2 8v-9c1-4 1-8-2-11-4-5-5-14-9-19l-5-12 4 4c5 5 9 15 9 17l23 17-3-1c0 2 0 3-2 4l-5 3 2 3c3 2 4 5 7 6 3 2 7 3 9 7l3 5c-1-2 1-4 1-6l-1-8c-2-1-1-3-2-5l-1-1c12 9 23 17 22 15l-60-59-8-5-1-1c-6-4-13-8-16-8l-5 7a85 85 0 01-7 8l-3 3c-3 7 1-3-4 6v2l-7 12-7 8c-2 0 0 0-1 1a104 104 0 01-17 31c-3 1-5 2-8 1l-7-13c-4-6-9-9-14-14l-9-9 2-4 11-13v2l2 3v0l-4 8 5-8c3-1 4 19 7 16l5-26 2 1c0 2 1 4 3 4l1 2-1-4-1-4v-5-1h3l1 3-1 15-3 15-1 3c0 1 0 0 0 0l3-8 5-14 2-10c3-2 12-11 13-9 5 9 1 4 10 12 3 6 1-1 0-4l-5-4c-4-11-11-18-16-20l-2-1zm81 42zm-133 69c0 3 1 2 0 0zM240 2l11 12-8-1c0-2-3-2-4-4s1-6 1-7zm-6 0h-1zm-4 5l-5 10 9-5-12 8c-1-1 1-2 1-4l7-9zm-5 10v0zm57 4l1 1v1l-1-2zm-60 2c-2 2-6 5-10 11v-1-1l3-3c3-1 3-5 6-6h1zm3 0v1l-3 3 3-4zm59 5v6l-3 4a227 227 0 013-10zm1 11l-4 14c-1 2 0 4 1 5s6-6 6-5l-6 10-1-1c-2 1-2 4-3 6v-1l1-10c-1-2 1-3 1-5l5-13zm-112 3l5 1 3 1c4 1 9 4 7 4h4v1l-1 1v-1l-7-2-9-2h-1l-1-3zm1 2h0zm2 0zm0 5h3c1 3 4 7 9 8l1 2v1l-5-4c-6-3-7-5-8-7zm127 3l2 5-3-2v2l2 8c-1 4-5 5-8 9-2 2 2 14-1 13-2 0-7-7-7-5l3 2c5 3-4 21 0 25l4 6c0 2-2 2-4 3-1 1 0 3 2 3s5-2 4-5c0-3-3-6-5-9-1-2 11-18 9-20-2 0-3-3-1-4 1-1 10 7 13 17 2 5 2 10 2 14 1-3 3-5 1-15 0-3-9-13-10-21-1-9 7-6 5-12-2-10-5-9-5-10l-3-4zm-163 0l3 1 10 8-13-7v-2zm56 1l5 6-2-1-3-5zm-59 3l2 5-2-5zm200 0v0zm-200 1c0 3-3 7-6 11l6-11zm-56 3l3 3a293 293 0 00-2-3zm123 3l1 3c-2 2-4 7-3 11 0 5 3 9 5 15 2 3-8-11-8-16l4-10 1-3zm109 1v12c-1 5 1 11 4 9l1-4c0-3 0-3 2-3h4c2-1 2-1 3 9v7c-2-1-2-1-2 1l2 3c1 2 3 2 3 1 2-1 0-17-2-23l-2-4-2 2c-2 1-3 2-5 0-2-1-3-2-4-6l-2-4zm-31 1l-3 11-1 4v-6l3-9zm54 2c4 1 7 5 10 7l3 4-3-2c-3-3-6-7-10-9zm-129 4l3 9-3-5v-4zm-17 6zm43 11l-3 4-1-1-1-1 2-1 3-1zM31 102l-3 3a214 214 0 00-3 1l6-4z"/>
  <path d="M309 388z"/>
</svg>
